<mxfile host="app.diagrams.net" modified="2021-06-06T01:52:18.207Z" agent="5.0 (Windows NT 10.0; Win64; x64) AppleWebKit/537.36 (KHTML, like Gecko) Chrome/90.0.4430.212 YaBrowser/21.5.2.638 Yowser/2.5 Safari/537.36" etag="xxn0hskUHiSdMlFmSx50" version="14.7.6" type="github" pages="3">
  <diagram id="C5RBs43oDa-KdzZeNtuy" name="Фронт система">
    <mxGraphModel dx="2036" dy="626" grid="1" gridSize="10" guides="1" tooltips="1" connect="1" arrows="1" fold="1" page="1" pageScale="1" pageWidth="827" pageHeight="1169" math="0" shadow="0">
      <root>
        <mxCell id="WIyWlLk6GJQsqaUBKTNV-0" />
        <mxCell id="WIyWlLk6GJQsqaUBKTNV-1" parent="WIyWlLk6GJQsqaUBKTNV-0" />
        <mxCell id="pujN4E0bFu2xnxWqtdsZ-0" value="Роли Клиента" style="swimlane;fontStyle=0;childLayout=stackLayout;horizontal=1;startSize=26;horizontalStack=0;resizeParent=1;resizeParentMax=0;resizeLast=0;collapsible=1;marginBottom=0;strokeWidth=2;fillColor=#FFF2CC;gradientColor=none;verticalAlign=middle;" parent="WIyWlLk6GJQsqaUBKTNV-1" vertex="1">
          <mxGeometry x="-110" y="160" width="140" height="104" as="geometry" />
        </mxCell>
        <mxCell id="pujN4E0bFu2xnxWqtdsZ-1" value="MASS(Массовый)" style="text;strokeColor=none;fillColor=none;align=left;verticalAlign=top;spacingLeft=4;spacingRight=4;overflow=hidden;rotatable=0;points=[[0,0.5],[1,0.5]];portConstraint=eastwest;" parent="pujN4E0bFu2xnxWqtdsZ-0" vertex="1">
          <mxGeometry y="26" width="140" height="26" as="geometry" />
        </mxCell>
        <mxCell id="pujN4E0bFu2xnxWqtdsZ-2" value="Premier(Премьеры)" style="text;strokeColor=none;fillColor=none;align=left;verticalAlign=top;spacingLeft=4;spacingRight=4;overflow=hidden;rotatable=0;points=[[0,0.5],[1,0.5]];portConstraint=eastwest;" parent="pujN4E0bFu2xnxWqtdsZ-0" vertex="1">
          <mxGeometry y="52" width="140" height="26" as="geometry" />
        </mxCell>
        <mxCell id="pujN4E0bFu2xnxWqtdsZ-3" value="VIP(Випы)" style="text;strokeColor=none;fillColor=none;align=left;verticalAlign=top;spacingLeft=4;spacingRight=4;overflow=hidden;rotatable=0;points=[[0,0.5],[1,0.5]];portConstraint=eastwest;" parent="pujN4E0bFu2xnxWqtdsZ-0" vertex="1">
          <mxGeometry y="78" width="140" height="26" as="geometry" />
        </mxCell>
        <mxCell id="psxdBlI2xa3-Kpe6SoFQ-2" style="edgeStyle=orthogonalEdgeStyle;rounded=0;orthogonalLoop=1;jettySize=auto;html=1;entryX=0.929;entryY=0.115;entryDx=0;entryDy=0;entryPerimeter=0;startArrow=classic;startFill=1;" parent="WIyWlLk6GJQsqaUBKTNV-1" source="pujN4E0bFu2xnxWqtdsZ-4" target="0OpQHrYULewvtPpoixab-2" edge="1">
          <mxGeometry relative="1" as="geometry" />
        </mxCell>
        <mxCell id="aQbIBO9A2pp3pK1Dom0a-1" value="" style="edgeStyle=orthogonalEdgeStyle;rounded=0;orthogonalLoop=1;jettySize=auto;html=1;startArrow=none;startFill=0;" parent="WIyWlLk6GJQsqaUBKTNV-1" source="pujN4E0bFu2xnxWqtdsZ-4" target="aQbIBO9A2pp3pK1Dom0a-0" edge="1">
          <mxGeometry relative="1" as="geometry" />
        </mxCell>
        <mxCell id="aQbIBO9A2pp3pK1Dom0a-2" value="Запуск сценария" style="edgeLabel;html=1;align=center;verticalAlign=middle;resizable=0;points=[];" parent="aQbIBO9A2pp3pK1Dom0a-1" vertex="1" connectable="0">
          <mxGeometry x="-0.1692" y="2" relative="1" as="geometry">
            <mxPoint as="offset" />
          </mxGeometry>
        </mxCell>
        <mxCell id="pujN4E0bFu2xnxWqtdsZ-4" value="UI" style="swimlane;strokeWidth=2;fillColor=#d5e8d4;verticalAlign=middle;strokeColor=#82b366;" parent="WIyWlLk6GJQsqaUBKTNV-1" vertex="1">
          <mxGeometry x="190" y="240" width="200" height="270" as="geometry" />
        </mxCell>
        <mxCell id="0OpQHrYULewvtPpoixab-8" value="Общий функционал" style="rounded=1;whiteSpace=wrap;html=1;strokeWidth=2;fillColor=#FFF2CC;gradientColor=none;verticalAlign=middle;" parent="pujN4E0bFu2xnxWqtdsZ-4" vertex="1">
          <mxGeometry x="10" y="40" width="120" height="60" as="geometry" />
        </mxCell>
        <mxCell id="0OpQHrYULewvtPpoixab-9" value="Для премьеров" style="rounded=1;whiteSpace=wrap;html=1;strokeWidth=2;fillColor=#FFF2CC;gradientColor=none;verticalAlign=middle;" parent="pujN4E0bFu2xnxWqtdsZ-4" vertex="1">
          <mxGeometry x="10" y="110" width="120" height="60" as="geometry" />
        </mxCell>
        <mxCell id="0OpQHrYULewvtPpoixab-11" value="Для випов" style="rounded=1;whiteSpace=wrap;html=1;strokeWidth=2;fillColor=#FFF2CC;gradientColor=none;verticalAlign=middle;" parent="pujN4E0bFu2xnxWqtdsZ-4" vertex="1">
          <mxGeometry x="10" y="180" width="120" height="60" as="geometry" />
        </mxCell>
        <mxCell id="0OpQHrYULewvtPpoixab-0" value="ФП Авторизация" style="swimlane;startSize=0;strokeWidth=2;fillColor=#fff2cc;verticalAlign=top;strokeColor=#d6b656;swimlaneFillColor=#FFB7A1;" parent="WIyWlLk6GJQsqaUBKTNV-1" vertex="1">
          <mxGeometry x="-560" y="275" width="200" height="200" as="geometry" />
        </mxCell>
        <mxCell id="0OpQHrYULewvtPpoixab-1" value="" style="shape=cylinder3;whiteSpace=wrap;html=1;boundedLbl=1;backgroundOutline=1;size=15;strokeWidth=2;fillColor=#FFF2CC;gradientColor=none;verticalAlign=middle;" parent="0OpQHrYULewvtPpoixab-0" vertex="1">
          <mxGeometry x="70" y="60" width="60" height="80" as="geometry" />
        </mxCell>
        <mxCell id="0OpQHrYULewvtPpoixab-13" style="edgeStyle=orthogonalEdgeStyle;rounded=0;orthogonalLoop=1;jettySize=auto;html=1;exitX=1;exitY=0.5;exitDx=0;exitDy=0;startArrow=classic;startFill=1;" parent="WIyWlLk6GJQsqaUBKTNV-1" source="0OpQHrYULewvtPpoixab-4" target="pujN4E0bFu2xnxWqtdsZ-0" edge="1">
          <mxGeometry relative="1" as="geometry" />
        </mxCell>
        <mxCell id="psxdBlI2xa3-Kpe6SoFQ-1" style="edgeStyle=orthogonalEdgeStyle;rounded=0;orthogonalLoop=1;jettySize=auto;html=1;startArrow=classic;startFill=1;" parent="WIyWlLk6GJQsqaUBKTNV-1" source="0OpQHrYULewvtPpoixab-15" target="0OpQHrYULewvtPpoixab-5" edge="1">
          <mxGeometry relative="1" as="geometry">
            <Array as="points">
              <mxPoint x="-130" y="493" />
              <mxPoint x="-140" y="493" />
            </Array>
          </mxGeometry>
        </mxCell>
        <mxCell id="0OpQHrYULewvtPpoixab-15" value="Конфиг" style="swimlane;fontStyle=0;childLayout=stackLayout;horizontal=1;startSize=26;horizontalStack=0;resizeParent=1;resizeParentMax=0;resizeLast=0;collapsible=1;marginBottom=0;strokeWidth=2;fillColor=#FFF2CC;gradientColor=none;verticalAlign=middle;" parent="WIyWlLk6GJQsqaUBKTNV-1" vertex="1">
          <mxGeometry x="-190" y="670" width="140" height="78" as="geometry" />
        </mxCell>
        <mxCell id="0OpQHrYULewvtPpoixab-16" value="Общие" style="text;strokeColor=none;fillColor=none;align=left;verticalAlign=top;spacingLeft=4;spacingRight=4;overflow=hidden;rotatable=0;points=[[0,0.5],[1,0.5]];portConstraint=eastwest;" parent="0OpQHrYULewvtPpoixab-15" vertex="1">
          <mxGeometry y="26" width="140" height="26" as="geometry" />
        </mxCell>
        <mxCell id="0OpQHrYULewvtPpoixab-17" value="Сценарии" style="text;strokeColor=none;fillColor=none;align=left;verticalAlign=top;spacingLeft=4;spacingRight=4;overflow=hidden;rotatable=0;points=[[0,0.5],[1,0.5]];portConstraint=eastwest;" parent="0OpQHrYULewvtPpoixab-15" vertex="1">
          <mxGeometry y="52" width="140" height="26" as="geometry" />
        </mxCell>
        <mxCell id="0OpQHrYULewvtPpoixab-19" value="sm_flow" style="swimlane;strokeWidth=2;fillColor=#dae8fc;verticalAlign=middle;strokeColor=#6c8ebf;" parent="WIyWlLk6GJQsqaUBKTNV-1" vertex="1">
          <mxGeometry x="-260" y="300" width="200" height="280" as="geometry" />
        </mxCell>
        <mxCell id="0OpQHrYULewvtPpoixab-2" value="Карточка клиента" style="swimlane;fontStyle=0;childLayout=stackLayout;horizontal=1;startSize=26;horizontalStack=0;resizeParent=1;resizeParentMax=0;resizeLast=0;collapsible=1;marginBottom=0;strokeWidth=2;fillColor=#FFF2CC;gradientColor=none;verticalAlign=middle;" parent="0OpQHrYULewvtPpoixab-19" vertex="1">
          <mxGeometry x="40" y="48" width="140" height="104" as="geometry" />
        </mxCell>
        <mxCell id="0OpQHrYULewvtPpoixab-3" value="Публичные данные" style="text;strokeColor=none;fillColor=none;align=left;verticalAlign=top;spacingLeft=4;spacingRight=4;overflow=hidden;rotatable=0;points=[[0,0.5],[1,0.5]];portConstraint=eastwest;" parent="0OpQHrYULewvtPpoixab-2" vertex="1">
          <mxGeometry y="26" width="140" height="26" as="geometry" />
        </mxCell>
        <mxCell id="0OpQHrYULewvtPpoixab-4" value="Роль" style="text;strokeColor=none;fillColor=none;align=left;verticalAlign=top;spacingLeft=4;spacingRight=4;overflow=hidden;rotatable=0;points=[[0,0.5],[1,0.5]];portConstraint=eastwest;" parent="0OpQHrYULewvtPpoixab-2" vertex="1">
          <mxGeometry y="52" width="140" height="26" as="geometry" />
        </mxCell>
        <mxCell id="0OpQHrYULewvtPpoixab-5" value="Конфиг" style="text;strokeColor=none;fillColor=none;align=left;verticalAlign=top;spacingLeft=4;spacingRight=4;overflow=hidden;rotatable=0;points=[[0,0.5],[1,0.5]];portConstraint=eastwest;" parent="0OpQHrYULewvtPpoixab-2" vertex="1">
          <mxGeometry y="78" width="140" height="26" as="geometry" />
        </mxCell>
        <mxCell id="nwDVl3qBO0Q75H3AtkXV-2" style="edgeStyle=orthogonalEdgeStyle;rounded=0;orthogonalLoop=1;jettySize=auto;html=1;startArrow=none;startFill=0;" parent="0OpQHrYULewvtPpoixab-19" source="nwDVl3qBO0Q75H3AtkXV-0" target="0OpQHrYULewvtPpoixab-4" edge="1">
          <mxGeometry relative="1" as="geometry">
            <Array as="points">
              <mxPoint x="70" y="170" />
              <mxPoint x="20" y="170" />
              <mxPoint x="20" y="113" />
            </Array>
          </mxGeometry>
        </mxCell>
        <mxCell id="nwDVl3qBO0Q75H3AtkXV-0" value="Flow_Manager" style="whiteSpace=wrap;html=1;aspect=fixed;strokeWidth=2;fillColor=#dae8fc;verticalAlign=middle;strokeColor=#6c8ebf;" parent="0OpQHrYULewvtPpoixab-19" vertex="1">
          <mxGeometry x="30" y="180" width="80" height="80" as="geometry" />
        </mxCell>
        <mxCell id="psxdBlI2xa3-Kpe6SoFQ-0" style="edgeStyle=orthogonalEdgeStyle;rounded=0;orthogonalLoop=1;jettySize=auto;html=1;entryX=1;entryY=0.5;entryDx=0;entryDy=0;startArrow=classic;startFill=1;" parent="WIyWlLk6GJQsqaUBKTNV-1" source="0OpQHrYULewvtPpoixab-2" target="0OpQHrYULewvtPpoixab-0" edge="1">
          <mxGeometry relative="1" as="geometry" />
        </mxCell>
        <mxCell id="psxdBlI2xa3-Kpe6SoFQ-3" style="edgeStyle=orthogonalEdgeStyle;rounded=0;orthogonalLoop=1;jettySize=auto;html=1;entryX=0.5;entryY=1;entryDx=0;entryDy=0;startArrow=classic;startFill=1;" parent="WIyWlLk6GJQsqaUBKTNV-1" source="0OpQHrYULewvtPpoixab-16" target="0OpQHrYULewvtPpoixab-0" edge="1">
          <mxGeometry relative="1" as="geometry" />
        </mxCell>
        <mxCell id="nwDVl3qBO0Q75H3AtkXV-1" style="edgeStyle=orthogonalEdgeStyle;rounded=0;orthogonalLoop=1;jettySize=auto;html=1;entryX=0;entryY=0.75;entryDx=0;entryDy=0;startArrow=none;startFill=0;" parent="WIyWlLk6GJQsqaUBKTNV-1" source="0OpQHrYULewvtPpoixab-17" target="nwDVl3qBO0Q75H3AtkXV-0" edge="1">
          <mxGeometry relative="1" as="geometry" />
        </mxCell>
        <mxCell id="aQbIBO9A2pp3pK1Dom0a-0" value="" style="ellipse;whiteSpace=wrap;html=1;fontStyle=1;strokeColor=#82b366;strokeWidth=2;fillColor=#d5e8d4;startSize=23;" parent="WIyWlLk6GJQsqaUBKTNV-1" vertex="1">
          <mxGeometry x="520" y="342.5" width="70" height="65" as="geometry" />
        </mxCell>
        <mxCell id="IgcWjrEYjJT46t9IWngX-0" value="СТЭК" style="swimlane;fontStyle=0;childLayout=stackLayout;horizontal=1;startSize=26;horizontalStack=0;resizeParent=1;resizeParentMax=0;resizeLast=0;collapsible=1;marginBottom=0;fontSize=19;strokeWidth=2;fillColor=#f8cecc;verticalAlign=middle;strokeColor=#b85450;" parent="WIyWlLk6GJQsqaUBKTNV-1" vertex="1">
          <mxGeometry x="-480" y="870" width="140" height="234" as="geometry" />
        </mxCell>
        <mxCell id="IgcWjrEYjJT46t9IWngX-1" value="Java 11" style="text;strokeColor=none;fillColor=none;align=left;verticalAlign=top;spacingLeft=4;spacingRight=4;overflow=hidden;rotatable=0;points=[[0,0.5],[1,0.5]];portConstraint=eastwest;" parent="IgcWjrEYjJT46t9IWngX-0" vertex="1">
          <mxGeometry y="26" width="140" height="26" as="geometry" />
        </mxCell>
        <mxCell id="IgcWjrEYjJT46t9IWngX-2" value="Kafka + Zookeper" style="text;strokeColor=none;fillColor=none;align=left;verticalAlign=top;spacingLeft=4;spacingRight=4;overflow=hidden;rotatable=0;points=[[0,0.5],[1,0.5]];portConstraint=eastwest;" parent="IgcWjrEYjJT46t9IWngX-0" vertex="1">
          <mxGeometry y="52" width="140" height="26" as="geometry" />
        </mxCell>
        <mxCell id="IgcWjrEYjJT46t9IWngX-3" value="Spring Boot" style="text;strokeColor=none;fillColor=none;align=left;verticalAlign=top;spacingLeft=4;spacingRight=4;overflow=hidden;rotatable=0;points=[[0,0.5],[1,0.5]];portConstraint=eastwest;" parent="IgcWjrEYjJT46t9IWngX-0" vertex="1">
          <mxGeometry y="78" width="140" height="26" as="geometry" />
        </mxCell>
        <mxCell id="IgcWjrEYjJT46t9IWngX-4" value="JSON" style="text;strokeColor=none;fillColor=none;align=left;verticalAlign=top;spacingLeft=4;spacingRight=4;overflow=hidden;rotatable=0;points=[[0,0.5],[1,0.5]];portConstraint=eastwest;" parent="IgcWjrEYjJT46t9IWngX-0" vertex="1">
          <mxGeometry y="104" width="140" height="26" as="geometry" />
        </mxCell>
        <mxCell id="IgcWjrEYjJT46t9IWngX-5" value="FullRest API" style="text;strokeColor=none;fillColor=none;align=left;verticalAlign=top;spacingLeft=4;spacingRight=4;overflow=hidden;rotatable=0;points=[[0,0.5],[1,0.5]];portConstraint=eastwest;" parent="IgcWjrEYjJT46t9IWngX-0" vertex="1">
          <mxGeometry y="130" width="140" height="26" as="geometry" />
        </mxCell>
        <mxCell id="IgcWjrEYjJT46t9IWngX-6" value="Docker" style="text;strokeColor=none;fillColor=none;align=left;verticalAlign=top;spacingLeft=4;spacingRight=4;overflow=hidden;rotatable=0;points=[[0,0.5],[1,0.5]];portConstraint=eastwest;" parent="IgcWjrEYjJT46t9IWngX-0" vertex="1">
          <mxGeometry y="156" width="140" height="26" as="geometry" />
        </mxCell>
        <mxCell id="IgcWjrEYjJT46t9IWngX-7" value="Kybernetes" style="text;strokeColor=none;fillColor=none;align=left;verticalAlign=top;spacingLeft=4;spacingRight=4;overflow=hidden;rotatable=0;points=[[0,0.5],[1,0.5]];portConstraint=eastwest;" parent="IgcWjrEYjJT46t9IWngX-0" vertex="1">
          <mxGeometry y="182" width="140" height="26" as="geometry" />
        </mxCell>
        <mxCell id="IgcWjrEYjJT46t9IWngX-8" value="Jenkins" style="text;strokeColor=none;fillColor=none;align=left;verticalAlign=top;spacingLeft=4;spacingRight=4;overflow=hidden;rotatable=0;points=[[0,0.5],[1,0.5]];portConstraint=eastwest;" parent="IgcWjrEYjJT46t9IWngX-0" vertex="1">
          <mxGeometry y="208" width="140" height="26" as="geometry" />
        </mxCell>
        <mxCell id="Csh2qs-SItA7-U-TUWvo-0" value="Публичные данны" style="swimlane;fontStyle=0;childLayout=stackLayout;horizontal=1;startSize=26;horizontalStack=0;resizeParent=1;resizeParentMax=0;resizeLast=0;collapsible=1;marginBottom=0;fillColor=#89E88C;" parent="WIyWlLk6GJQsqaUBKTNV-1" vertex="1">
          <mxGeometry x="140" y="670" width="140" height="130" as="geometry" />
        </mxCell>
        <mxCell id="Csh2qs-SItA7-U-TUWvo-1" value="Имя" style="text;strokeColor=none;fillColor=none;align=left;verticalAlign=top;spacingLeft=4;spacingRight=4;overflow=hidden;rotatable=0;points=[[0,0.5],[1,0.5]];portConstraint=eastwest;" parent="Csh2qs-SItA7-U-TUWvo-0" vertex="1">
          <mxGeometry y="26" width="140" height="26" as="geometry" />
        </mxCell>
        <mxCell id="Csh2qs-SItA7-U-TUWvo-4" value="Фамилия" style="text;strokeColor=none;fillColor=none;align=left;verticalAlign=top;spacingLeft=4;spacingRight=4;overflow=hidden;rotatable=0;points=[[0,0.5],[1,0.5]];portConstraint=eastwest;" parent="Csh2qs-SItA7-U-TUWvo-0" vertex="1">
          <mxGeometry y="52" width="140" height="26" as="geometry" />
        </mxCell>
        <mxCell id="Csh2qs-SItA7-U-TUWvo-5" value="Отчество" style="text;strokeColor=none;fillColor=none;align=left;verticalAlign=top;spacingLeft=4;spacingRight=4;overflow=hidden;rotatable=0;points=[[0,0.5],[1,0.5]];portConstraint=eastwest;" parent="Csh2qs-SItA7-U-TUWvo-0" vertex="1">
          <mxGeometry y="78" width="140" height="26" as="geometry" />
        </mxCell>
        <mxCell id="Csh2qs-SItA7-U-TUWvo-2" value="email" style="text;strokeColor=none;fillColor=none;align=left;verticalAlign=top;spacingLeft=4;spacingRight=4;overflow=hidden;rotatable=0;points=[[0,0.5],[1,0.5]];portConstraint=eastwest;" parent="Csh2qs-SItA7-U-TUWvo-0" vertex="1">
          <mxGeometry y="104" width="140" height="26" as="geometry" />
        </mxCell>
        <mxCell id="Csh2qs-SItA7-U-TUWvo-7" style="edgeStyle=orthogonalEdgeStyle;rounded=0;jumpSize=12;orthogonalLoop=1;jettySize=auto;html=1;entryX=0;entryY=0.5;entryDx=0;entryDy=0;startArrow=classic;startFill=1;strokeColor=#FF3333;strokeWidth=2;" parent="WIyWlLk6GJQsqaUBKTNV-1" source="0OpQHrYULewvtPpoixab-3" target="Csh2qs-SItA7-U-TUWvo-1" edge="1">
          <mxGeometry relative="1" as="geometry" />
        </mxCell>
        <mxCell id="Csh2qs-SItA7-U-TUWvo-8" value="Сценарий" style="swimlane;fontStyle=0;childLayout=stackLayout;horizontal=1;startSize=26;horizontalStack=0;resizeParent=1;resizeParentMax=0;resizeLast=0;collapsible=1;marginBottom=0;fillColor=#89E88C;" parent="WIyWlLk6GJQsqaUBKTNV-1" vertex="1">
          <mxGeometry x="-200" y="800" width="140" height="104" as="geometry" />
        </mxCell>
        <mxCell id="Csh2qs-SItA7-U-TUWvo-9" value="перевод" style="text;strokeColor=none;fillColor=none;align=left;verticalAlign=top;spacingLeft=4;spacingRight=4;overflow=hidden;rotatable=0;points=[[0,0.5],[1,0.5]];portConstraint=eastwest;" parent="Csh2qs-SItA7-U-TUWvo-8" vertex="1">
          <mxGeometry y="26" width="140" height="26" as="geometry" />
        </mxCell>
        <mxCell id="Csh2qs-SItA7-U-TUWvo-10" value="покупка валюты" style="text;strokeColor=none;fillColor=none;align=left;verticalAlign=top;spacingLeft=4;spacingRight=4;overflow=hidden;rotatable=0;points=[[0,0.5],[1,0.5]];portConstraint=eastwest;" parent="Csh2qs-SItA7-U-TUWvo-8" vertex="1">
          <mxGeometry y="52" width="140" height="26" as="geometry" />
        </mxCell>
        <mxCell id="Csh2qs-SItA7-U-TUWvo-11" value="....&#xa;" style="text;strokeColor=none;fillColor=none;align=left;verticalAlign=top;spacingLeft=4;spacingRight=4;overflow=hidden;rotatable=0;points=[[0,0.5],[1,0.5]];portConstraint=eastwest;" parent="Csh2qs-SItA7-U-TUWvo-8" vertex="1">
          <mxGeometry y="78" width="140" height="26" as="geometry" />
        </mxCell>
        <mxCell id="Csh2qs-SItA7-U-TUWvo-12" style="edgeStyle=orthogonalEdgeStyle;rounded=0;jumpSize=12;orthogonalLoop=1;jettySize=auto;html=1;entryX=1;entryY=0.25;entryDx=0;entryDy=0;startArrow=classic;startFill=1;strokeColor=#FF3333;strokeWidth=2;" parent="WIyWlLk6GJQsqaUBKTNV-1" source="0OpQHrYULewvtPpoixab-17" target="Csh2qs-SItA7-U-TUWvo-8" edge="1">
          <mxGeometry relative="1" as="geometry">
            <Array as="points">
              <mxPoint y="735" />
              <mxPoint y="774" />
              <mxPoint x="-40" y="774" />
              <mxPoint x="-40" y="826" />
            </Array>
          </mxGeometry>
        </mxCell>
      </root>
    </mxGraphModel>
  </diagram>
  <diagram id="yGzmTOzV-Ie1dhuyWpL7" name="JSON схемы">
    <mxGraphModel dx="1209" dy="626" grid="1" gridSize="10" guides="1" tooltips="1" connect="1" arrows="1" fold="1" page="1" pageScale="1" pageWidth="827" pageHeight="1169" math="0" shadow="0">
      <root>
        <mxCell id="lrpI-Smw3STIRPwvIWVU-0" />
        <mxCell id="lrpI-Smw3STIRPwvIWVU-1" parent="lrpI-Smw3STIRPwvIWVU-0" />
        <mxCell id="go7AVqm7_WEI91e8fiSq-1" value="Старт сценария" style="swimlane;fontStyle=0;childLayout=stackLayout;horizontal=1;startSize=26;horizontalStack=0;resizeParent=1;resizeParentMax=0;resizeLast=0;collapsible=1;marginBottom=0;strokeWidth=2;fillColor=#d5e8d4;verticalAlign=middle;strokeColor=#82b366;" parent="lrpI-Smw3STIRPwvIWVU-1" vertex="1">
          <mxGeometry x="820" y="1040" width="140" height="78" as="geometry" />
        </mxCell>
        <mxCell id="go7AVqm7_WEI91e8fiSq-2" value="CLIENT_ID" style="text;strokeColor=none;fillColor=none;align=left;verticalAlign=top;spacingLeft=4;spacingRight=4;overflow=hidden;rotatable=0;points=[[0,0.5],[1,0.5]];portConstraint=eastwest;" parent="go7AVqm7_WEI91e8fiSq-1" vertex="1">
          <mxGeometry y="26" width="140" height="26" as="geometry" />
        </mxCell>
        <mxCell id="go7AVqm7_WEI91e8fiSq-3" value="FLOW_NAME" style="text;strokeColor=none;fillColor=none;align=left;verticalAlign=top;spacingLeft=4;spacingRight=4;overflow=hidden;rotatable=0;points=[[0,0.5],[1,0.5]];portConstraint=eastwest;" parent="go7AVqm7_WEI91e8fiSq-1" vertex="1">
          <mxGeometry y="52" width="140" height="26" as="geometry" />
        </mxCell>
        <mxCell id="go7AVqm7_WEI91e8fiSq-5" value="Flow" style="swimlane;fontStyle=0;childLayout=stackLayout;horizontal=1;startSize=26;horizontalStack=0;resizeParent=1;resizeParentMax=0;resizeLast=0;collapsible=1;marginBottom=0;strokeWidth=2;fillColor=#FFF2CC;gradientColor=none;verticalAlign=middle;" parent="lrpI-Smw3STIRPwvIWVU-1" vertex="1">
          <mxGeometry x="1000" y="1040" width="140" height="156" as="geometry">
            <mxRectangle x="980" y="710" width="60" height="26" as="alternateBounds" />
          </mxGeometry>
        </mxCell>
        <mxCell id="go7AVqm7_WEI91e8fiSq-6" value="FLOW_NAME" style="text;strokeColor=none;fillColor=none;align=left;verticalAlign=top;spacingLeft=4;spacingRight=4;overflow=hidden;rotatable=0;points=[[0,0.5],[1,0.5]];portConstraint=eastwest;" parent="go7AVqm7_WEI91e8fiSq-5" vertex="1">
          <mxGeometry y="26" width="140" height="26" as="geometry" />
        </mxCell>
        <mxCell id="go7AVqm7_WEI91e8fiSq-7" value="STATUS" style="text;strokeColor=none;fillColor=none;align=left;verticalAlign=top;spacingLeft=4;spacingRight=4;overflow=hidden;rotatable=0;points=[[0,0.5],[1,0.5]];portConstraint=eastwest;" parent="go7AVqm7_WEI91e8fiSq-5" vertex="1">
          <mxGeometry y="52" width="140" height="26" as="geometry" />
        </mxCell>
        <mxCell id="go7AVqm7_WEI91e8fiSq-8" value="ERROR&#xa;" style="text;strokeColor=none;fillColor=none;align=left;verticalAlign=top;spacingLeft=4;spacingRight=4;overflow=hidden;rotatable=0;points=[[0,0.5],[1,0.5]];portConstraint=eastwest;" parent="go7AVqm7_WEI91e8fiSq-5" vertex="1">
          <mxGeometry y="78" width="140" height="26" as="geometry" />
        </mxCell>
        <mxCell id="go7AVqm7_WEI91e8fiSq-40" value="ERROR_MESSAGE" style="text;strokeColor=none;fillColor=none;align=left;verticalAlign=top;spacingLeft=4;spacingRight=4;overflow=hidden;rotatable=0;points=[[0,0.5],[1,0.5]];portConstraint=eastwest;" parent="go7AVqm7_WEI91e8fiSq-5" vertex="1">
          <mxGeometry y="104" width="140" height="26" as="geometry" />
        </mxCell>
        <mxCell id="go7AVqm7_WEI91e8fiSq-41" value="DATA" style="text;strokeColor=none;fillColor=none;align=left;verticalAlign=top;spacingLeft=4;spacingRight=4;overflow=hidden;rotatable=0;points=[[0,0.5],[1,0.5]];portConstraint=eastwest;" parent="go7AVqm7_WEI91e8fiSq-5" vertex="1">
          <mxGeometry y="130" width="140" height="26" as="geometry" />
        </mxCell>
        <mxCell id="go7AVqm7_WEI91e8fiSq-51" value="" style="edgeStyle=orthogonalEdgeStyle;rounded=0;orthogonalLoop=1;jettySize=auto;html=1;startArrow=none;startFill=0;" parent="lrpI-Smw3STIRPwvIWVU-1" source="go7AVqm7_WEI91e8fiSq-42" target="go7AVqm7_WEI91e8fiSq-48" edge="1">
          <mxGeometry relative="1" as="geometry" />
        </mxCell>
        <mxCell id="go7AVqm7_WEI91e8fiSq-66" value="" style="edgeStyle=orthogonalEdgeStyle;rounded=0;orthogonalLoop=1;jettySize=auto;html=1;startArrow=none;startFill=0;" parent="lrpI-Smw3STIRPwvIWVU-1" source="go7AVqm7_WEI91e8fiSq-42" target="go7AVqm7_WEI91e8fiSq-63" edge="1">
          <mxGeometry relative="1" as="geometry" />
        </mxCell>
        <mxCell id="go7AVqm7_WEI91e8fiSq-42" value="Data" style="swimlane;fontStyle=0;childLayout=stackLayout;horizontal=1;startSize=26;horizontalStack=0;resizeParent=1;resizeParentMax=0;resizeLast=0;collapsible=1;marginBottom=0;strokeWidth=2;fillColor=#FFF2CC;gradientColor=none;verticalAlign=middle;" parent="lrpI-Smw3STIRPwvIWVU-1" vertex="1">
          <mxGeometry x="1191" y="1200" width="140" height="78" as="geometry" />
        </mxCell>
        <mxCell id="go7AVqm7_WEI91e8fiSq-43" value="SECTION" style="text;strokeColor=none;fillColor=none;align=left;verticalAlign=top;spacingLeft=4;spacingRight=4;overflow=hidden;rotatable=0;points=[[0,0.5],[1,0.5]];portConstraint=eastwest;" parent="go7AVqm7_WEI91e8fiSq-42" vertex="1">
          <mxGeometry y="26" width="140" height="26" as="geometry" />
        </mxCell>
        <mxCell id="go7AVqm7_WEI91e8fiSq-44" value="WIDGET_LIST" style="text;strokeColor=none;fillColor=none;align=left;verticalAlign=top;spacingLeft=4;spacingRight=4;overflow=hidden;rotatable=0;points=[[0,0.5],[1,0.5]];portConstraint=eastwest;" parent="go7AVqm7_WEI91e8fiSq-42" vertex="1">
          <mxGeometry y="52" width="140" height="26" as="geometry" />
        </mxCell>
        <mxCell id="go7AVqm7_WEI91e8fiSq-47" style="edgeStyle=orthogonalEdgeStyle;rounded=0;orthogonalLoop=1;jettySize=auto;html=1;entryX=0;entryY=0.25;entryDx=0;entryDy=0;startArrow=none;startFill=0;" parent="lrpI-Smw3STIRPwvIWVU-1" source="go7AVqm7_WEI91e8fiSq-41" target="go7AVqm7_WEI91e8fiSq-42" edge="1">
          <mxGeometry relative="1" as="geometry" />
        </mxCell>
        <mxCell id="go7AVqm7_WEI91e8fiSq-61" value="" style="edgeStyle=orthogonalEdgeStyle;rounded=0;orthogonalLoop=1;jettySize=auto;html=1;startArrow=none;startFill=0;" parent="lrpI-Smw3STIRPwvIWVU-1" source="go7AVqm7_WEI91e8fiSq-48" target="go7AVqm7_WEI91e8fiSq-58" edge="1">
          <mxGeometry relative="1" as="geometry" />
        </mxCell>
        <mxCell id="go7AVqm7_WEI91e8fiSq-48" value="Section" style="swimlane;fontStyle=0;childLayout=stackLayout;horizontal=1;startSize=26;horizontalStack=0;resizeParent=1;resizeParentMax=0;resizeLast=0;collapsible=1;marginBottom=0;strokeWidth=2;fillColor=#FFF2CC;gradientColor=none;verticalAlign=middle;" parent="lrpI-Smw3STIRPwvIWVU-1" vertex="1">
          <mxGeometry x="1410" y="1118" width="140" height="78" as="geometry" />
        </mxCell>
        <mxCell id="go7AVqm7_WEI91e8fiSq-49" value="TITLE" style="text;strokeColor=none;fillColor=none;align=left;verticalAlign=top;spacingLeft=4;spacingRight=4;overflow=hidden;rotatable=0;points=[[0,0.5],[1,0.5]];portConstraint=eastwest;" parent="go7AVqm7_WEI91e8fiSq-48" vertex="1">
          <mxGeometry y="26" width="140" height="26" as="geometry" />
        </mxCell>
        <mxCell id="go7AVqm7_WEI91e8fiSq-50" value="INFO_LIST" style="text;strokeColor=none;fillColor=none;align=left;verticalAlign=top;spacingLeft=4;spacingRight=4;overflow=hidden;rotatable=0;points=[[0,0.5],[1,0.5]];portConstraint=eastwest;" parent="go7AVqm7_WEI91e8fiSq-48" vertex="1">
          <mxGeometry y="52" width="140" height="26" as="geometry" />
        </mxCell>
        <mxCell id="go7AVqm7_WEI91e8fiSq-58" value="Info" style="swimlane;fontStyle=0;childLayout=stackLayout;horizontal=1;startSize=26;horizontalStack=0;resizeParent=1;resizeParentMax=0;resizeLast=0;collapsible=1;marginBottom=0;strokeWidth=2;fillColor=#FFF2CC;gradientColor=none;verticalAlign=middle;" parent="lrpI-Smw3STIRPwvIWVU-1" vertex="1">
          <mxGeometry x="1630" y="1118" width="140" height="78" as="geometry" />
        </mxCell>
        <mxCell id="go7AVqm7_WEI91e8fiSq-59" value="TEXT_TYPE" style="text;strokeColor=none;fillColor=none;align=left;verticalAlign=top;spacingLeft=4;spacingRight=4;overflow=hidden;rotatable=0;points=[[0,0.5],[1,0.5]];portConstraint=eastwest;" parent="go7AVqm7_WEI91e8fiSq-58" vertex="1">
          <mxGeometry y="26" width="140" height="26" as="geometry" />
        </mxCell>
        <mxCell id="go7AVqm7_WEI91e8fiSq-60" value="TEXT" style="text;strokeColor=none;fillColor=none;align=left;verticalAlign=top;spacingLeft=4;spacingRight=4;overflow=hidden;rotatable=0;points=[[0,0.5],[1,0.5]];portConstraint=eastwest;" parent="go7AVqm7_WEI91e8fiSq-58" vertex="1">
          <mxGeometry y="52" width="140" height="26" as="geometry" />
        </mxCell>
        <mxCell id="go7AVqm7_WEI91e8fiSq-71" value="" style="edgeStyle=orthogonalEdgeStyle;rounded=0;orthogonalLoop=1;jettySize=auto;html=1;startArrow=none;startFill=0;" parent="lrpI-Smw3STIRPwvIWVU-1" source="go7AVqm7_WEI91e8fiSq-63" target="go7AVqm7_WEI91e8fiSq-68" edge="1">
          <mxGeometry relative="1" as="geometry" />
        </mxCell>
        <mxCell id="go7AVqm7_WEI91e8fiSq-63" value="WIDGET" style="swimlane;fontStyle=0;childLayout=stackLayout;horizontal=1;startSize=26;horizontalStack=0;resizeParent=1;resizeParentMax=0;resizeLast=0;collapsible=1;marginBottom=0;strokeWidth=2;fillColor=#FFF2CC;gradientColor=none;verticalAlign=middle;" parent="lrpI-Smw3STIRPwvIWVU-1" vertex="1">
          <mxGeometry x="1191" y="1358" width="140" height="78" as="geometry" />
        </mxCell>
        <mxCell id="go7AVqm7_WEI91e8fiSq-64" value="WIDGET_TYPE" style="text;strokeColor=none;fillColor=none;align=left;verticalAlign=top;spacingLeft=4;spacingRight=4;overflow=hidden;rotatable=0;points=[[0,0.5],[1,0.5]];portConstraint=eastwest;" parent="go7AVqm7_WEI91e8fiSq-63" vertex="1">
          <mxGeometry y="26" width="140" height="26" as="geometry" />
        </mxCell>
        <mxCell id="go7AVqm7_WEI91e8fiSq-65" value="WIDGET_BODY" style="text;strokeColor=none;fillColor=none;align=left;verticalAlign=top;spacingLeft=4;spacingRight=4;overflow=hidden;rotatable=0;points=[[0,0.5],[1,0.5]];portConstraint=eastwest;" parent="go7AVqm7_WEI91e8fiSq-63" vertex="1">
          <mxGeometry y="52" width="140" height="26" as="geometry" />
        </mxCell>
        <mxCell id="go7AVqm7_WEI91e8fiSq-68" value="ТИПЫ ВИДЖЕТОВ" style="swimlane;fontStyle=0;childLayout=stackLayout;horizontal=1;startSize=26;horizontalStack=0;resizeParent=1;resizeParentMax=0;resizeLast=0;collapsible=1;marginBottom=0;strokeWidth=2;fillColor=#FFF2CC;gradientColor=none;verticalAlign=middle;" parent="lrpI-Smw3STIRPwvIWVU-1" vertex="1">
          <mxGeometry x="1411" y="1358" width="140" height="208" as="geometry" />
        </mxCell>
        <mxCell id="go7AVqm7_WEI91e8fiSq-69" value="TEXT" style="text;strokeColor=none;fillColor=none;align=left;verticalAlign=top;spacingLeft=4;spacingRight=4;overflow=hidden;rotatable=0;points=[[0,0.5],[1,0.5]];portConstraint=eastwest;" parent="go7AVqm7_WEI91e8fiSq-68" vertex="1">
          <mxGeometry y="26" width="140" height="26" as="geometry" />
        </mxCell>
        <mxCell id="go7AVqm7_WEI91e8fiSq-70" value="NUMBER_INT" style="text;strokeColor=none;fillColor=none;align=left;verticalAlign=top;spacingLeft=4;spacingRight=4;overflow=hidden;rotatable=0;points=[[0,0.5],[1,0.5]];portConstraint=eastwest;" parent="go7AVqm7_WEI91e8fiSq-68" vertex="1">
          <mxGeometry y="52" width="140" height="26" as="geometry" />
        </mxCell>
        <mxCell id="go7AVqm7_WEI91e8fiSq-92" value="NUMBER_FLOAT" style="text;strokeColor=none;fillColor=none;align=left;verticalAlign=top;spacingLeft=4;spacingRight=4;overflow=hidden;rotatable=0;points=[[0,0.5],[1,0.5]];portConstraint=eastwest;" parent="go7AVqm7_WEI91e8fiSq-68" vertex="1">
          <mxGeometry y="78" width="140" height="26" as="geometry" />
        </mxCell>
        <mxCell id="go7AVqm7_WEI91e8fiSq-72" value="LIST" style="text;strokeColor=none;fillColor=none;align=left;verticalAlign=top;spacingLeft=4;spacingRight=4;overflow=hidden;rotatable=0;points=[[0,0.5],[1,0.5]];portConstraint=eastwest;" parent="go7AVqm7_WEI91e8fiSq-68" vertex="1">
          <mxGeometry y="104" width="140" height="26" as="geometry" />
        </mxCell>
        <mxCell id="go7AVqm7_WEI91e8fiSq-73" value="DATE" style="text;strokeColor=none;fillColor=none;align=left;verticalAlign=top;spacingLeft=4;spacingRight=4;overflow=hidden;rotatable=0;points=[[0,0.5],[1,0.5]];portConstraint=eastwest;" parent="go7AVqm7_WEI91e8fiSq-68" vertex="1">
          <mxGeometry y="130" width="140" height="26" as="geometry" />
        </mxCell>
        <mxCell id="go7AVqm7_WEI91e8fiSq-74" value="CHECK_LIST" style="text;strokeColor=none;fillColor=none;align=left;verticalAlign=top;spacingLeft=4;spacingRight=4;overflow=hidden;rotatable=0;points=[[0,0.5],[1,0.5]];portConstraint=eastwest;" parent="go7AVqm7_WEI91e8fiSq-68" vertex="1">
          <mxGeometry y="156" width="140" height="26" as="geometry" />
        </mxCell>
        <mxCell id="go7AVqm7_WEI91e8fiSq-75" value="SLIDER" style="text;strokeColor=none;fillColor=none;align=left;verticalAlign=top;spacingLeft=4;spacingRight=4;overflow=hidden;rotatable=0;points=[[0,0.5],[1,0.5]];portConstraint=eastwest;" parent="go7AVqm7_WEI91e8fiSq-68" vertex="1">
          <mxGeometry y="182" width="140" height="26" as="geometry" />
        </mxCell>
        <mxCell id="go7AVqm7_WEI91e8fiSq-76" value="TEXT" style="swimlane;fontStyle=0;childLayout=stackLayout;horizontal=1;startSize=26;horizontalStack=0;resizeParent=1;resizeParentMax=0;resizeLast=0;collapsible=1;marginBottom=0;strokeWidth=2;fillColor=#FFF2CC;gradientColor=none;verticalAlign=middle;" parent="lrpI-Smw3STIRPwvIWVU-1" vertex="1">
          <mxGeometry x="1630" y="1358" width="140" height="130" as="geometry" />
        </mxCell>
        <mxCell id="go7AVqm7_WEI91e8fiSq-77" value="REGEX" style="text;strokeColor=none;fillColor=none;align=left;verticalAlign=top;spacingLeft=4;spacingRight=4;overflow=hidden;rotatable=0;points=[[0,0.5],[1,0.5]];portConstraint=eastwest;" parent="go7AVqm7_WEI91e8fiSq-76" vertex="1">
          <mxGeometry y="26" width="140" height="26" as="geometry" />
        </mxCell>
        <mxCell id="go7AVqm7_WEI91e8fiSq-83" value="TEXT" style="text;strokeColor=none;fillColor=none;align=left;verticalAlign=top;spacingLeft=4;spacingRight=4;overflow=hidden;rotatable=0;points=[[0,0.5],[1,0.5]];portConstraint=eastwest;" parent="go7AVqm7_WEI91e8fiSq-76" vertex="1">
          <mxGeometry y="52" width="140" height="26" as="geometry" />
        </mxCell>
        <mxCell id="go7AVqm7_WEI91e8fiSq-84" value="HINT" style="text;strokeColor=none;fillColor=none;align=left;verticalAlign=top;spacingLeft=4;spacingRight=4;overflow=hidden;rotatable=0;points=[[0,0.5],[1,0.5]];portConstraint=eastwest;" parent="go7AVqm7_WEI91e8fiSq-76" vertex="1">
          <mxGeometry y="78" width="140" height="26" as="geometry" />
        </mxCell>
        <mxCell id="go7AVqm7_WEI91e8fiSq-85" value="ERROR" style="text;strokeColor=none;fillColor=none;align=left;verticalAlign=top;spacingLeft=4;spacingRight=4;overflow=hidden;rotatable=0;points=[[0,0.5],[1,0.5]];portConstraint=eastwest;" parent="go7AVqm7_WEI91e8fiSq-76" vertex="1">
          <mxGeometry y="104" width="140" height="26" as="geometry" />
        </mxCell>
        <mxCell id="go7AVqm7_WEI91e8fiSq-86" value="NUMBER" style="swimlane;fontStyle=0;childLayout=stackLayout;horizontal=1;startSize=26;horizontalStack=0;resizeParent=1;resizeParentMax=0;resizeLast=0;collapsible=1;marginBottom=0;strokeWidth=2;fillColor=#FFF2CC;gradientColor=none;verticalAlign=middle;" parent="lrpI-Smw3STIRPwvIWVU-1" vertex="1">
          <mxGeometry x="1810" y="1358" width="140" height="156" as="geometry" />
        </mxCell>
        <mxCell id="go7AVqm7_WEI91e8fiSq-87" value="MIN" style="text;strokeColor=none;fillColor=none;align=left;verticalAlign=top;spacingLeft=4;spacingRight=4;overflow=hidden;rotatable=0;points=[[0,0.5],[1,0.5]];portConstraint=eastwest;" parent="go7AVqm7_WEI91e8fiSq-86" vertex="1">
          <mxGeometry y="26" width="140" height="26" as="geometry" />
        </mxCell>
        <mxCell id="go7AVqm7_WEI91e8fiSq-91" value="MAX" style="text;strokeColor=none;fillColor=none;align=left;verticalAlign=top;spacingLeft=4;spacingRight=4;overflow=hidden;rotatable=0;points=[[0,0.5],[1,0.5]];portConstraint=eastwest;" parent="go7AVqm7_WEI91e8fiSq-86" vertex="1">
          <mxGeometry y="52" width="140" height="26" as="geometry" />
        </mxCell>
        <mxCell id="go7AVqm7_WEI91e8fiSq-88" value="TEXT" style="text;strokeColor=none;fillColor=none;align=left;verticalAlign=top;spacingLeft=4;spacingRight=4;overflow=hidden;rotatable=0;points=[[0,0.5],[1,0.5]];portConstraint=eastwest;" parent="go7AVqm7_WEI91e8fiSq-86" vertex="1">
          <mxGeometry y="78" width="140" height="26" as="geometry" />
        </mxCell>
        <mxCell id="go7AVqm7_WEI91e8fiSq-89" value="HINT" style="text;strokeColor=none;fillColor=none;align=left;verticalAlign=top;spacingLeft=4;spacingRight=4;overflow=hidden;rotatable=0;points=[[0,0.5],[1,0.5]];portConstraint=eastwest;" parent="go7AVqm7_WEI91e8fiSq-86" vertex="1">
          <mxGeometry y="104" width="140" height="26" as="geometry" />
        </mxCell>
        <mxCell id="go7AVqm7_WEI91e8fiSq-90" value="ERROR" style="text;strokeColor=none;fillColor=none;align=left;verticalAlign=top;spacingLeft=4;spacingRight=4;overflow=hidden;rotatable=0;points=[[0,0.5],[1,0.5]];portConstraint=eastwest;" parent="go7AVqm7_WEI91e8fiSq-86" vertex="1">
          <mxGeometry y="130" width="140" height="26" as="geometry" />
        </mxCell>
        <mxCell id="go7AVqm7_WEI91e8fiSq-93" value="Примеры структуры JSON" style="text;html=1;strokeColor=none;fillColor=none;align=center;verticalAlign=middle;whiteSpace=wrap;rounded=0;fontSize=19;fontStyle=1" parent="lrpI-Smw3STIRPwvIWVU-1" vertex="1">
          <mxGeometry x="1230" y="970" width="290" height="20" as="geometry" />
        </mxCell>
        <mxCell id="29iStJ96vaB-OqFGbkou-9" value="Шаг сценария" style="swimlane;fontStyle=0;childLayout=stackLayout;horizontal=1;startSize=26;horizontalStack=0;resizeParent=1;resizeParentMax=0;resizeLast=0;collapsible=1;marginBottom=0;fillColor=#89E88C;" parent="lrpI-Smw3STIRPwvIWVU-1" vertex="1">
          <mxGeometry x="820" y="1174" width="140" height="104" as="geometry" />
        </mxCell>
        <mxCell id="29iStJ96vaB-OqFGbkou-10" value="FLOW_NAME" style="text;strokeColor=none;fillColor=none;align=left;verticalAlign=top;spacingLeft=4;spacingRight=4;overflow=hidden;rotatable=0;points=[[0,0.5],[1,0.5]];portConstraint=eastwest;" parent="29iStJ96vaB-OqFGbkou-9" vertex="1">
          <mxGeometry y="26" width="140" height="26" as="geometry" />
        </mxCell>
        <mxCell id="29iStJ96vaB-OqFGbkou-12" value="STEP" style="text;strokeColor=none;fillColor=none;align=left;verticalAlign=top;spacingLeft=4;spacingRight=4;overflow=hidden;rotatable=0;points=[[0,0.5],[1,0.5]];portConstraint=eastwest;" parent="29iStJ96vaB-OqFGbkou-9" vertex="1">
          <mxGeometry y="52" width="140" height="26" as="geometry" />
        </mxCell>
        <mxCell id="29iStJ96vaB-OqFGbkou-11" value="VALUE" style="text;strokeColor=none;fillColor=none;align=left;verticalAlign=top;spacingLeft=4;spacingRight=4;overflow=hidden;rotatable=0;points=[[0,0.5],[1,0.5]];portConstraint=eastwest;" parent="29iStJ96vaB-OqFGbkou-9" vertex="1">
          <mxGeometry y="78" width="140" height="26" as="geometry" />
        </mxCell>
        <mxCell id="0ZWrv6BXkPUo_hYXJulm-10" value="" style="edgeStyle=orthogonalEdgeStyle;rounded=0;orthogonalLoop=1;jettySize=auto;html=1;fontSize=10;startArrow=classic;startFill=1;strokeColor=#000000;strokeWidth=1;" edge="1" parent="lrpI-Smw3STIRPwvIWVU-1" source="0ZWrv6BXkPUo_hYXJulm-0" target="0ZWrv6BXkPUo_hYXJulm-6">
          <mxGeometry relative="1" as="geometry" />
        </mxCell>
        <mxCell id="0ZWrv6BXkPUo_hYXJulm-0" value="OrderInfo" style="swimlane;fontStyle=0;childLayout=stackLayout;horizontal=1;startSize=26;horizontalStack=0;resizeParent=1;resizeParentMax=0;resizeLast=0;collapsible=1;marginBottom=0;fontSize=10;strokeColor=#b85450;verticalAlign=middle;fillColor=#f8cecc;" vertex="1" parent="lrpI-Smw3STIRPwvIWVU-1">
          <mxGeometry x="820" y="1345" width="140" height="104" as="geometry" />
        </mxCell>
        <mxCell id="0ZWrv6BXkPUo_hYXJulm-1" value="FLOW_NAME" style="text;strokeColor=none;fillColor=none;align=left;verticalAlign=top;spacingLeft=4;spacingRight=4;overflow=hidden;rotatable=0;points=[[0,0.5],[1,0.5]];portConstraint=eastwest;" vertex="1" parent="0ZWrv6BXkPUo_hYXJulm-0">
          <mxGeometry y="26" width="140" height="26" as="geometry" />
        </mxCell>
        <mxCell id="0ZWrv6BXkPUo_hYXJulm-2" value="LIST_ORDER_VALUE" style="text;strokeColor=none;fillColor=none;align=left;verticalAlign=top;spacingLeft=4;spacingRight=4;overflow=hidden;rotatable=0;points=[[0,0.5],[1,0.5]];portConstraint=eastwest;" vertex="1" parent="0ZWrv6BXkPUo_hYXJulm-0">
          <mxGeometry y="52" width="140" height="26" as="geometry" />
        </mxCell>
        <mxCell id="0ZWrv6BXkPUo_hYXJulm-3" value="CLIENT_ID" style="text;strokeColor=none;fillColor=none;align=left;verticalAlign=top;spacingLeft=4;spacingRight=4;overflow=hidden;rotatable=0;points=[[0,0.5],[1,0.5]];portConstraint=eastwest;" vertex="1" parent="0ZWrv6BXkPUo_hYXJulm-0">
          <mxGeometry y="78" width="140" height="26" as="geometry" />
        </mxCell>
        <mxCell id="0ZWrv6BXkPUo_hYXJulm-6" value="OrderValue" style="swimlane;fontStyle=0;childLayout=stackLayout;horizontal=1;startSize=26;horizontalStack=0;resizeParent=1;resizeParentMax=0;resizeLast=0;collapsible=1;marginBottom=0;fontSize=10;strokeColor=#b85450;verticalAlign=middle;fillColor=#f8cecc;" vertex="1" parent="lrpI-Smw3STIRPwvIWVU-1">
          <mxGeometry x="1010" y="1462" width="140" height="78" as="geometry" />
        </mxCell>
        <mxCell id="0ZWrv6BXkPUo_hYXJulm-7" value="PARAM_NAME" style="text;strokeColor=none;fillColor=none;align=left;verticalAlign=top;spacingLeft=4;spacingRight=4;overflow=hidden;rotatable=0;points=[[0,0.5],[1,0.5]];portConstraint=eastwest;" vertex="1" parent="0ZWrv6BXkPUo_hYXJulm-6">
          <mxGeometry y="26" width="140" height="26" as="geometry" />
        </mxCell>
        <mxCell id="0ZWrv6BXkPUo_hYXJulm-8" value="VALUE" style="text;strokeColor=none;fillColor=none;align=left;verticalAlign=top;spacingLeft=4;spacingRight=4;overflow=hidden;rotatable=0;points=[[0,0.5],[1,0.5]];portConstraint=eastwest;" vertex="1" parent="0ZWrv6BXkPUo_hYXJulm-6">
          <mxGeometry y="52" width="140" height="26" as="geometry" />
        </mxCell>
      </root>
    </mxGraphModel>
  </diagram>
  <diagram id="tnCzIlDKC_pQgHkhF0oX" name="Общая архитектура">
    <mxGraphModel dx="1727" dy="894" grid="1" gridSize="10" guides="1" tooltips="1" connect="1" arrows="1" fold="1" page="1" pageScale="1" pageWidth="827" pageHeight="1169" math="0" shadow="0">
      <root>
        <mxCell id="xr15WPqmtP5GsfRE41T5-0" />
        <mxCell id="xr15WPqmtP5GsfRE41T5-1" parent="xr15WPqmtP5GsfRE41T5-0" />
        <mxCell id="xr15WPqmtP5GsfRE41T5-9" value="Обновление данных&lt;br&gt;и статусов операций" style="edgeStyle=orthogonalEdgeStyle;rounded=0;orthogonalLoop=1;jettySize=auto;html=1;startArrow=classic;startFill=1;strokeColor=#FF3333;strokeWidth=2;fontSize=13;" edge="1" parent="xr15WPqmtP5GsfRE41T5-1" source="xr15WPqmtP5GsfRE41T5-3" target="xr15WPqmtP5GsfRE41T5-4">
          <mxGeometry x="0.1391" y="-12" relative="1" as="geometry">
            <Array as="points">
              <mxPoint x="150" y="490" />
            </Array>
            <mxPoint as="offset" />
          </mxGeometry>
        </mxCell>
        <mxCell id="Mn5iPt1B06JY-B4fLLV2-26" value="История операций" style="edgeStyle=orthogonalEdgeStyle;rounded=0;orthogonalLoop=1;jettySize=auto;html=1;exitX=0.75;exitY=0;exitDx=0;exitDy=0;fontSize=10;startArrow=classic;startFill=1;strokeWidth=1;entryX=0;entryY=0;entryDx=0;entryDy=0;" edge="1" parent="xr15WPqmtP5GsfRE41T5-1" source="xr15WPqmtP5GsfRE41T5-3" target="xr15WPqmtP5GsfRE41T5-10">
          <mxGeometry relative="1" as="geometry" />
        </mxCell>
        <mxCell id="xr15WPqmtP5GsfRE41T5-3" value="FRONT" style="swimlane;startSize=0;verticalAlign=top;fillColor=#dae8fc;strokeColor=#6c8ebf;swimlaneFillColor=#FFFFCC;" vertex="1" parent="xr15WPqmtP5GsfRE41T5-1">
          <mxGeometry x="100" y="140" width="100" height="280" as="geometry" />
        </mxCell>
        <mxCell id="xr15WPqmtP5GsfRE41T5-4" value="Kafka" style="swimlane;startSize=0;verticalAlign=top;fillColor=#dae8fc;strokeColor=#6c8ebf;swimlaneFillColor=#66FF66;" vertex="1" parent="xr15WPqmtP5GsfRE41T5-1">
          <mxGeometry x="720" y="130" width="76" height="430" as="geometry" />
        </mxCell>
        <mxCell id="Mn5iPt1B06JY-B4fLLV2-0" value="сценарии" style="edgeStyle=orthogonalEdgeStyle;rounded=0;orthogonalLoop=1;jettySize=auto;html=1;exitX=0;exitY=0.25;exitDx=0;exitDy=0;entryX=1;entryY=0.25;entryDx=0;entryDy=0;startArrow=classic;startFill=1;strokeWidth=1;fontSize=16;" edge="1" parent="xr15WPqmtP5GsfRE41T5-1" source="xr15WPqmtP5GsfRE41T5-10" target="xr15WPqmtP5GsfRE41T5-3">
          <mxGeometry relative="1" as="geometry" />
        </mxCell>
        <mxCell id="Mn5iPt1B06JY-B4fLLV2-10" style="edgeStyle=orthogonalEdgeStyle;rounded=0;orthogonalLoop=1;jettySize=auto;html=1;entryX=0;entryY=0.25;entryDx=0;entryDy=0;fontSize=13;startArrow=none;startFill=0;strokeColor=#FF3333;strokeWidth=2;exitX=1;exitY=0.25;exitDx=0;exitDy=0;" edge="1" parent="xr15WPqmtP5GsfRE41T5-1" source="xr15WPqmtP5GsfRE41T5-10" target="xr15WPqmtP5GsfRE41T5-4">
          <mxGeometry relative="1" as="geometry" />
        </mxCell>
        <mxCell id="Mn5iPt1B06JY-B4fLLV2-12" value="Отправка ордера" style="edgeLabel;html=1;align=center;verticalAlign=middle;resizable=0;points=[];fontSize=11;" vertex="1" connectable="0" parent="Mn5iPt1B06JY-B4fLLV2-10">
          <mxGeometry x="-0.4397" y="1" relative="1" as="geometry">
            <mxPoint as="offset" />
          </mxGeometry>
        </mxCell>
        <mxCell id="Mn5iPt1B06JY-B4fLLV2-23" style="edgeStyle=orthogonalEdgeStyle;rounded=0;orthogonalLoop=1;jettySize=auto;html=1;exitX=1;exitY=0;exitDx=0;exitDy=0;entryX=0;entryY=0.047;entryDx=0;entryDy=0;entryPerimeter=0;fontSize=13;startArrow=classic;startFill=1;strokeColor=#FF3333;strokeWidth=2;" edge="1" parent="xr15WPqmtP5GsfRE41T5-1" source="xr15WPqmtP5GsfRE41T5-10" target="xr15WPqmtP5GsfRE41T5-4">
          <mxGeometry relative="1" as="geometry" />
        </mxCell>
        <mxCell id="Mn5iPt1B06JY-B4fLLV2-24" value="Получение Истории" style="edgeLabel;html=1;align=center;verticalAlign=middle;resizable=0;points=[];fontSize=10;" vertex="1" connectable="0" parent="Mn5iPt1B06JY-B4fLLV2-23">
          <mxGeometry x="-0.0945" y="-1" relative="1" as="geometry">
            <mxPoint as="offset" />
          </mxGeometry>
        </mxCell>
        <mxCell id="xr15WPqmtP5GsfRE41T5-10" value="sm_manager" style="swimlane;startSize=0;verticalAlign=top;fillColor=#dae8fc;strokeColor=#6c8ebf;swimlaneFillColor=#8FC3FF;" vertex="1" parent="xr15WPqmtP5GsfRE41T5-1">
          <mxGeometry x="430" y="130" width="100" height="280" as="geometry" />
        </mxCell>
        <mxCell id="Mn5iPt1B06JY-B4fLLV2-13" value="step" style="rounded=0;whiteSpace=wrap;html=1;fontSize=11;strokeColor=#000000;verticalAlign=top;" vertex="1" parent="xr15WPqmtP5GsfRE41T5-10">
          <mxGeometry x="5" y="180" width="90" height="40" as="geometry" />
        </mxCell>
        <mxCell id="Mn5iPt1B06JY-B4fLLV2-3" style="edgeStyle=orthogonalEdgeStyle;rounded=0;orthogonalLoop=1;jettySize=auto;html=1;entryX=1;entryY=0.5;entryDx=0;entryDy=0;fontSize=13;startArrow=none;startFill=0;strokeColor=#000000;strokeWidth=1;" edge="1" parent="xr15WPqmtP5GsfRE41T5-1" source="Mn5iPt1B06JY-B4fLLV2-2" target="xr15WPqmtP5GsfRE41T5-3">
          <mxGeometry relative="1" as="geometry" />
        </mxCell>
        <mxCell id="Mn5iPt1B06JY-B4fLLV2-4" value="Карточка клиента" style="edgeLabel;html=1;align=center;verticalAlign=middle;resizable=0;points=[];fontSize=13;" vertex="1" connectable="0" parent="Mn5iPt1B06JY-B4fLLV2-3">
          <mxGeometry x="0.3662" y="1" relative="1" as="geometry">
            <mxPoint as="offset" />
          </mxGeometry>
        </mxCell>
        <mxCell id="Mn5iPt1B06JY-B4fLLV2-2" value="ФП Авторизация" style="swimlane;startSize=0;verticalAlign=top;fillColor=#dae8fc;swimlaneFillColor=#FF9999;fontSize=11;" vertex="1" parent="xr15WPqmtP5GsfRE41T5-1">
          <mxGeometry x="300" y="320" width="100" height="100" as="geometry" />
        </mxCell>
        <mxCell id="Mn5iPt1B06JY-B4fLLV2-7" style="edgeStyle=orthogonalEdgeStyle;rounded=0;orthogonalLoop=1;jettySize=auto;html=1;entryX=0.4;entryY=1;entryDx=0;entryDy=0;entryPerimeter=0;fontSize=11;startArrow=classic;startFill=1;strokeColor=#000000;strokeWidth=1;" edge="1" parent="xr15WPqmtP5GsfRE41T5-1" source="Mn5iPt1B06JY-B4fLLV2-5" target="xr15WPqmtP5GsfRE41T5-10">
          <mxGeometry relative="1" as="geometry" />
        </mxCell>
        <mxCell id="Mn5iPt1B06JY-B4fLLV2-8" style="edgeStyle=orthogonalEdgeStyle;rounded=0;orthogonalLoop=1;jettySize=auto;html=1;entryX=0.5;entryY=1;entryDx=0;entryDy=0;fontSize=13;startArrow=classic;startFill=1;strokeWidth=2;strokeColor=#FF3333;" edge="1" parent="xr15WPqmtP5GsfRE41T5-1" source="Mn5iPt1B06JY-B4fLLV2-5" target="xr15WPqmtP5GsfRE41T5-4">
          <mxGeometry relative="1" as="geometry" />
        </mxCell>
        <mxCell id="Mn5iPt1B06JY-B4fLLV2-5" value="ФП Аудирование" style="swimlane;startSize=0;verticalAlign=top;fillColor=#dae8fc;swimlaneFillColor=#FF9999;fontSize=11;" vertex="1" parent="xr15WPqmtP5GsfRE41T5-1">
          <mxGeometry x="430" y="590" width="100" height="100" as="geometry" />
        </mxCell>
        <mxCell id="Mn5iPt1B06JY-B4fLLV2-9" value="sm_core" style="swimlane;startSize=0;verticalAlign=top;fillColor=#dae8fc;strokeColor=#6c8ebf;swimlaneFillColor=#99FFFF;" vertex="1" parent="xr15WPqmtP5GsfRE41T5-1">
          <mxGeometry x="980" y="140" width="330" height="280" as="geometry" />
        </mxCell>
        <mxCell id="Mn5iPt1B06JY-B4fLLV2-17" value="Управление клиентскими данными" style="swimlane;startSize=0;verticalAlign=top;fillColor=#dae8fc;swimlaneFillColor=#FF9999;fontSize=11;" vertex="1" parent="Mn5iPt1B06JY-B4fLLV2-9">
          <mxGeometry x="50" y="180" width="200" height="90" as="geometry" />
        </mxCell>
        <mxCell id="Mn5iPt1B06JY-B4fLLV2-18" value="" style="shape=cylinder3;whiteSpace=wrap;html=1;boundedLbl=1;backgroundOutline=1;size=15;fontSize=11;strokeColor=#000000;verticalAlign=top;" vertex="1" parent="Mn5iPt1B06JY-B4fLLV2-17">
          <mxGeometry x="100" y="30" width="30" height="50" as="geometry" />
        </mxCell>
        <mxCell id="Mn5iPt1B06JY-B4fLLV2-45" value="" style="edgeStyle=orthogonalEdgeStyle;rounded=0;orthogonalLoop=1;jettySize=auto;html=1;fontSize=10;startArrow=classic;startFill=1;strokeColor=#000000;strokeWidth=1;" edge="1" parent="Mn5iPt1B06JY-B4fLLV2-9" source="Mn5iPt1B06JY-B4fLLV2-29" target="Mn5iPt1B06JY-B4fLLV2-44">
          <mxGeometry relative="1" as="geometry" />
        </mxCell>
        <mxCell id="Mn5iPt1B06JY-B4fLLV2-29" value="orderManager" style="rounded=0;whiteSpace=wrap;html=1;fontSize=10;strokeColor=#000000;verticalAlign=middle;" vertex="1" parent="Mn5iPt1B06JY-B4fLLV2-9">
          <mxGeometry x="80" y="30" width="120" height="60" as="geometry" />
        </mxCell>
        <mxCell id="Mn5iPt1B06JY-B4fLLV2-44" value="status" style="rounded=0;whiteSpace=wrap;html=1;fontSize=10;strokeColor=#000000;verticalAlign=middle;" vertex="1" parent="Mn5iPt1B06JY-B4fLLV2-9">
          <mxGeometry x="80" y="110" width="120" height="60" as="geometry" />
        </mxCell>
        <mxCell id="Mn5iPt1B06JY-B4fLLV2-14" style="edgeStyle=orthogonalEdgeStyle;rounded=0;orthogonalLoop=1;jettySize=auto;html=1;entryX=0;entryY=0.5;entryDx=0;entryDy=0;fontSize=13;startArrow=none;startFill=0;strokeColor=#FF3333;strokeWidth=2;" edge="1" parent="xr15WPqmtP5GsfRE41T5-1" source="Mn5iPt1B06JY-B4fLLV2-13" target="xr15WPqmtP5GsfRE41T5-4">
          <mxGeometry relative="1" as="geometry" />
        </mxCell>
        <mxCell id="Mn5iPt1B06JY-B4fLLV2-15" value="Особый запрос&lt;br&gt;для проверки шага" style="edgeLabel;html=1;align=center;verticalAlign=middle;resizable=0;points=[];fontSize=11;" vertex="1" connectable="0" parent="Mn5iPt1B06JY-B4fLLV2-14">
          <mxGeometry x="-0.2804" y="4" relative="1" as="geometry">
            <mxPoint as="offset" />
          </mxGeometry>
        </mxCell>
        <mxCell id="Mn5iPt1B06JY-B4fLLV2-19" value="Получение и обновление данных клиента&lt;br style=&quot;font-size: 10px;&quot;&gt;и его счетов" style="edgeStyle=orthogonalEdgeStyle;rounded=0;orthogonalLoop=1;jettySize=auto;html=1;entryX=1;entryY=0.5;entryDx=0;entryDy=0;fontSize=13;startArrow=classic;startFill=1;strokeColor=#FF3333;strokeWidth=2;" edge="1" parent="xr15WPqmtP5GsfRE41T5-1" source="Mn5iPt1B06JY-B4fLLV2-17" target="xr15WPqmtP5GsfRE41T5-4">
          <mxGeometry x="-0.0787" y="41" relative="1" as="geometry">
            <mxPoint x="8" y="25" as="offset" />
          </mxGeometry>
        </mxCell>
        <mxCell id="Mn5iPt1B06JY-B4fLLV2-21" style="edgeStyle=orthogonalEdgeStyle;rounded=0;orthogonalLoop=1;jettySize=auto;html=1;fontSize=13;startArrow=classic;startFill=1;strokeColor=#FF3333;strokeWidth=2;" edge="1" parent="xr15WPqmtP5GsfRE41T5-1" source="Mn5iPt1B06JY-B4fLLV2-20" target="xr15WPqmtP5GsfRE41T5-4">
          <mxGeometry relative="1" as="geometry" />
        </mxCell>
        <mxCell id="Mn5iPt1B06JY-B4fLLV2-28" style="edgeStyle=orthogonalEdgeStyle;rounded=0;orthogonalLoop=1;jettySize=auto;html=1;entryX=0.5;entryY=0;entryDx=0;entryDy=0;fontSize=13;startArrow=classic;startFill=1;strokeColor=#FF3333;strokeWidth=2;" edge="1" parent="xr15WPqmtP5GsfRE41T5-1" source="Mn5iPt1B06JY-B4fLLV2-20" target="Mn5iPt1B06JY-B4fLLV2-27">
          <mxGeometry relative="1" as="geometry" />
        </mxCell>
        <mxCell id="Mn5iPt1B06JY-B4fLLV2-20" value="История операций" style="swimlane;startSize=0;verticalAlign=top;fillColor=#dae8fc;swimlaneFillColor=#FF9999;fontSize=11;" vertex="1" parent="xr15WPqmtP5GsfRE41T5-1">
          <mxGeometry x="890" width="100" height="100" as="geometry" />
        </mxCell>
        <mxCell id="Mn5iPt1B06JY-B4fLLV2-22" value="" style="shape=cylinder3;whiteSpace=wrap;html=1;boundedLbl=1;backgroundOutline=1;size=15;fontSize=10;strokeColor=#000000;verticalAlign=top;" vertex="1" parent="Mn5iPt1B06JY-B4fLLV2-20">
          <mxGeometry x="30" y="30" width="40" height="60" as="geometry" />
        </mxCell>
        <mxCell id="Mn5iPt1B06JY-B4fLLV2-27" value="Kafka" style="swimlane;startSize=0;verticalAlign=top;fillColor=#dae8fc;strokeColor=#6c8ebf;swimlaneFillColor=#66FF66;" vertex="1" parent="xr15WPqmtP5GsfRE41T5-1">
          <mxGeometry x="1370" y="65" width="76" height="430" as="geometry" />
        </mxCell>
        <mxCell id="Mn5iPt1B06JY-B4fLLV2-30" style="edgeStyle=orthogonalEdgeStyle;rounded=0;orthogonalLoop=1;jettySize=auto;html=1;fontSize=13;startArrow=classic;startFill=1;strokeColor=#FF3333;strokeWidth=2;" edge="1" parent="xr15WPqmtP5GsfRE41T5-1" source="Mn5iPt1B06JY-B4fLLV2-29" target="Mn5iPt1B06JY-B4fLLV2-27">
          <mxGeometry relative="1" as="geometry" />
        </mxCell>
        <mxCell id="Mn5iPt1B06JY-B4fLLV2-34" value="Отправка заявки&amp;nbsp;&lt;br&gt;в необходимый продукт" style="edgeLabel;html=1;align=center;verticalAlign=middle;resizable=0;points=[];fontSize=10;" vertex="1" connectable="0" parent="Mn5iPt1B06JY-B4fLLV2-30">
          <mxGeometry x="-0.1078" y="-2" relative="1" as="geometry">
            <mxPoint as="offset" />
          </mxGeometry>
        </mxCell>
        <mxCell id="Mn5iPt1B06JY-B4fLLV2-32" style="edgeStyle=orthogonalEdgeStyle;rounded=0;orthogonalLoop=1;jettySize=auto;html=1;entryX=1;entryY=0.25;entryDx=0;entryDy=0;fontSize=13;startArrow=classic;startFill=1;strokeColor=#FF3333;strokeWidth=2;" edge="1" parent="xr15WPqmtP5GsfRE41T5-1" source="Mn5iPt1B06JY-B4fLLV2-29" target="xr15WPqmtP5GsfRE41T5-4">
          <mxGeometry relative="1" as="geometry" />
        </mxCell>
        <mxCell id="Mn5iPt1B06JY-B4fLLV2-33" value="Получение заявки" style="edgeLabel;html=1;align=center;verticalAlign=middle;resizable=0;points=[];fontSize=10;" vertex="1" connectable="0" parent="Mn5iPt1B06JY-B4fLLV2-32">
          <mxGeometry x="0.2126" y="-4" relative="1" as="geometry">
            <mxPoint as="offset" />
          </mxGeometry>
        </mxCell>
        <mxCell id="Mn5iPt1B06JY-B4fLLV2-41" style="edgeStyle=orthogonalEdgeStyle;rounded=0;orthogonalLoop=1;jettySize=auto;html=1;entryX=1;entryY=0.25;entryDx=0;entryDy=0;fontSize=13;startArrow=classic;startFill=1;strokeColor=#FF3333;strokeWidth=2;" edge="1" parent="xr15WPqmtP5GsfRE41T5-1" source="Mn5iPt1B06JY-B4fLLV2-35" target="Mn5iPt1B06JY-B4fLLV2-27">
          <mxGeometry relative="1" as="geometry" />
        </mxCell>
        <mxCell id="Mn5iPt1B06JY-B4fLLV2-35" value="ПЛАТЕЖИ" style="swimlane;startSize=0;verticalAlign=top;fillColor=#dae8fc;swimlaneFillColor=#FF9999;fontSize=11;" vertex="1" parent="xr15WPqmtP5GsfRE41T5-1">
          <mxGeometry x="1510" y="100" width="100" height="100" as="geometry" />
        </mxCell>
        <mxCell id="Mn5iPt1B06JY-B4fLLV2-36" value="" style="shape=cylinder3;whiteSpace=wrap;html=1;boundedLbl=1;backgroundOutline=1;size=15;fontSize=10;strokeColor=#000000;verticalAlign=top;" vertex="1" parent="Mn5iPt1B06JY-B4fLLV2-35">
          <mxGeometry x="30" y="30" width="40" height="60" as="geometry" />
        </mxCell>
        <mxCell id="Mn5iPt1B06JY-B4fLLV2-42" style="edgeStyle=orthogonalEdgeStyle;rounded=0;orthogonalLoop=1;jettySize=auto;html=1;fontSize=13;startArrow=classic;startFill=1;strokeColor=#FF3333;strokeWidth=2;" edge="1" parent="xr15WPqmtP5GsfRE41T5-1" source="Mn5iPt1B06JY-B4fLLV2-37" target="Mn5iPt1B06JY-B4fLLV2-27">
          <mxGeometry relative="1" as="geometry" />
        </mxCell>
        <mxCell id="Mn5iPt1B06JY-B4fLLV2-37" value="ПЛАТЕЖИ" style="swimlane;startSize=0;verticalAlign=top;fillColor=#dae8fc;swimlaneFillColor=#FF9999;fontSize=11;" vertex="1" parent="xr15WPqmtP5GsfRE41T5-1">
          <mxGeometry x="1510" y="240" width="100" height="100" as="geometry" />
        </mxCell>
        <mxCell id="Mn5iPt1B06JY-B4fLLV2-38" value="" style="shape=cylinder3;whiteSpace=wrap;html=1;boundedLbl=1;backgroundOutline=1;size=15;fontSize=10;strokeColor=#000000;verticalAlign=top;" vertex="1" parent="Mn5iPt1B06JY-B4fLLV2-37">
          <mxGeometry x="30" y="30" width="40" height="60" as="geometry" />
        </mxCell>
        <mxCell id="Mn5iPt1B06JY-B4fLLV2-43" style="edgeStyle=orthogonalEdgeStyle;rounded=0;orthogonalLoop=1;jettySize=auto;html=1;entryX=1;entryY=0.75;entryDx=0;entryDy=0;fontSize=13;startArrow=classic;startFill=1;strokeColor=#FF3333;strokeWidth=2;" edge="1" parent="xr15WPqmtP5GsfRE41T5-1" source="Mn5iPt1B06JY-B4fLLV2-39" target="Mn5iPt1B06JY-B4fLLV2-27">
          <mxGeometry relative="1" as="geometry" />
        </mxCell>
        <mxCell id="Mn5iPt1B06JY-B4fLLV2-39" value="ДРУГИЕ &#xa;ПЛАТФОРМЫ" style="swimlane;startSize=0;verticalAlign=top;fillColor=#dae8fc;swimlaneFillColor=#FF9999;fontSize=11;" vertex="1" parent="xr15WPqmtP5GsfRE41T5-1">
          <mxGeometry x="1510" y="390" width="100" height="100" as="geometry" />
        </mxCell>
        <mxCell id="Mn5iPt1B06JY-B4fLLV2-40" value="" style="shape=cylinder3;whiteSpace=wrap;html=1;boundedLbl=1;backgroundOutline=1;size=15;fontSize=10;strokeColor=#000000;verticalAlign=top;" vertex="1" parent="Mn5iPt1B06JY-B4fLLV2-39">
          <mxGeometry x="30" y="30" width="40" height="60" as="geometry" />
        </mxCell>
        <mxCell id="Mn5iPt1B06JY-B4fLLV2-46" style="edgeStyle=orthogonalEdgeStyle;rounded=0;orthogonalLoop=1;jettySize=auto;html=1;fontSize=13;startArrow=classic;startFill=1;strokeColor=#FF3333;strokeWidth=2;entryX=0.986;entryY=0.388;entryDx=0;entryDy=0;entryPerimeter=0;" edge="1" parent="xr15WPqmtP5GsfRE41T5-1" source="Mn5iPt1B06JY-B4fLLV2-44" target="xr15WPqmtP5GsfRE41T5-4">
          <mxGeometry relative="1" as="geometry" />
        </mxCell>
        <mxCell id="Mn5iPt1B06JY-B4fLLV2-47" value="Обновляем статусы заявок" style="edgeLabel;html=1;align=center;verticalAlign=middle;resizable=0;points=[];fontSize=10;" vertex="1" connectable="0" parent="Mn5iPt1B06JY-B4fLLV2-46">
          <mxGeometry x="0.333" y="-4" relative="1" as="geometry">
            <mxPoint as="offset" />
          </mxGeometry>
        </mxCell>
      </root>
    </mxGraphModel>
  </diagram>
</mxfile>
